<svg width="45" height="45" viewBox="0 0 45 45" fill="none" xmlns="http://www.w3.org/2000/svg">
<path d="M27.1615 39.4677C25.606 39.4677 24.0669 39.2328 22.5808 38.7674C21.0906 39.2328 19.5555 39.4677 18 39.4677C9.17734 39.4677 2 31.9611 2 22.7338C2 13.5065 9.17734 6 18 6C19.5514 6 21.0906 6.23485 22.5808 6.70027C24.0709 6.23485 25.6101 6 27.1615 6C35.9842 6 43.1615 13.5065 43.1615 22.7338C43.1615 31.9611 35.9842 39.4677 27.1615 39.4677ZM22.5808 35.629L23.0299 35.7827C24.3649 36.2439 25.7571 36.4787 27.1615 36.4787C34.4083 36.4787 40.3037 30.3129 40.3037 22.7338C40.3037 15.1547 34.4083 8.98895 27.1615 8.98895C25.7571 8.98895 24.3649 9.22379 23.0299 9.68494L22.5808 9.84293L22.1317 9.68921C20.7966 9.22379 19.4044 8.98895 18 8.98895C10.7533 8.98895 4.85787 15.1547 4.85787 22.7338C4.85787 30.3129 10.7533 36.4787 18 36.4787C19.4044 36.4787 20.7966 36.2439 22.1317 35.7827L22.5808 35.629Z" fill="black"/>
<path opacity="0.6" d="M32.1677 22.6326C32.1677 25.4264 30.7386 27.8443 28.6458 29.0404C28.1857 29.3053 27.8926 29.8307 27.8926 30.4074C27.8926 31.3942 28.715 32.129 29.5823 31.9111C33.3933 30.9542 36.2434 27.1651 36.2434 22.6369C36.2434 18.1087 33.3973 14.3196 29.5823 13.3627C28.715 13.1448 27.8926 13.8796 27.8926 14.8664C27.8926 15.4431 28.1817 15.9685 28.6458 16.2334C30.7345 17.421 32.1677 19.8388 32.1677 22.6326Z" fill="#BC87BC" fill-opacity="0.75" stroke="black" stroke-opacity="0.8" stroke-width="0.4" stroke-miterlimit="10"/>
<path opacity="0.6" d="M32.1677 22.6326C32.1677 25.4264 30.7386 27.8443 28.6458 29.0404C28.1857 29.3053 27.8926 29.8307 27.8926 30.4074C27.8926 31.3942 28.715 32.129 29.5823 31.9111C33.3933 30.9542 36.2434 27.1651 36.2434 22.6369C36.2434 18.1087 33.3973 14.3196 29.5823 13.3627C28.715 13.1448 27.8926 13.8796 27.8926 14.8664C27.8926 15.4431 28.1817 15.9685 28.6458 16.2334C30.7345 17.421 32.1677 19.8388 32.1677 22.6326Z" stroke="black" stroke-opacity="0.8" stroke-width="0.4" stroke-miterlimit="10"/>
<g opacity="0.6">
<path opacity="0.6" d="M22.7052 11.6633C25.1767 11.6633 27.3224 13.2738 28.381 15.6318C28.6131 16.153 29.0813 16.4777 29.5902 16.4777C30.4656 16.4777 31.113 15.5507 30.9217 14.5724C30.0748 10.2749 26.7198 7.0625 22.7052 7.0625C18.6947 7.0625 15.3398 10.2707 14.4888 14.5724C14.2974 15.5464 14.9448 16.4777 15.8202 16.4777C16.3291 16.4777 16.7974 16.1487 17.0295 15.6318C18.0881 13.2738 20.2297 11.6633 22.7052 11.6633Z" fill="#BC87BC" stroke="black" stroke-width="0.4" stroke-miterlimit="10"/>
</g>
<g opacity="0.6">
<path opacity="0.6" d="M22.7052 11.6633C25.1767 11.6633 27.3224 13.2738 28.381 15.6318C28.6131 16.153 29.0813 16.4777 29.5902 16.4777C30.4656 16.4777 31.113 15.5507 30.9217 14.5724C30.0748 10.2749 26.7198 7.0625 22.7052 7.0625C18.6947 7.0625 15.3398 10.2707 14.4888 14.5724C14.2974 15.5464 14.9448 16.4777 15.8202 16.4777C16.3291 16.4777 16.7974 16.1487 17.0295 15.6318C18.0881 13.2738 20.2297 11.6633 22.7052 11.6633Z" stroke="black" stroke-width="0.4" stroke-miterlimit="10"/>
</g>
<g opacity="0.6">
<path opacity="0.6" d="M15.8731 14.8445C17.6198 12.841 20.1319 12.2472 22.3347 13.0589C22.8192 13.2383 23.3526 13.0931 23.7149 12.6787C24.3338 11.9696 24.2198 10.7905 23.4788 10.2565C20.2215 7.90274 15.869 8.35129 13.0311 11.5979C10.1932 14.8445 9.80644 19.8298 11.8585 23.5591C12.3267 24.4049 13.3568 24.5374 13.9757 23.8282C14.3381 23.4139 14.4643 22.8073 14.3096 22.2477C13.6052 19.723 14.1223 16.8437 15.8731 14.8445Z" fill="#BC87BC" stroke="black" stroke-width="0.4" stroke-miterlimit="10"/>
</g>
<g opacity="0.6">
<path opacity="0.6" d="M15.8731 14.8445C17.6198 12.841 20.1319 12.2472 22.3347 13.0589C22.8192 13.2383 23.3526 13.0931 23.7149 12.6787C24.3338 11.9696 24.2198 10.7905 23.4788 10.2565C20.2215 7.90274 15.869 8.35129 13.0311 11.5979C10.1932 14.8445 9.80644 19.8298 11.8585 23.5591C12.3267 24.4049 13.3568 24.5374 13.9757 23.8282C14.3381 23.4139 14.4643 22.8073 14.3096 22.2477C13.6052 19.723 14.1223 16.8437 15.8731 14.8445Z" stroke="black" stroke-width="0.4" stroke-miterlimit="10"/>
</g>
<g opacity="0.6">
<path opacity="0.6" d="M13.1329 22.6049C13.1329 19.7727 14.5417 17.3206 16.5978 16.1074C17.0538 15.8383 17.3388 15.3086 17.3388 14.7233C17.3388 13.7237 16.5286 12.9804 15.6736 13.1983C11.9196 14.168 9.11426 18.0084 9.11426 22.6007C9.11426 27.1929 11.9196 31.0333 15.6736 32.0073C16.5245 32.2294 17.3388 31.4819 17.3388 30.4822C17.3388 29.897 17.0538 29.363 16.5978 29.0982C14.5417 27.8935 13.1329 25.4372 13.1329 22.6049Z" fill="#BC87BC" stroke="black" stroke-width="0.4" stroke-miterlimit="10"/>
</g>
<g opacity="0.6">
<path opacity="0.6" d="M13.1329 22.6049C13.1329 19.7727 14.5417 17.3206 16.5978 16.1074C17.0538 15.8383 17.3388 15.3086 17.3388 14.7233C17.3388 13.7237 16.5286 12.9804 15.6736 13.1983C11.9196 14.168 9.11426 18.0084 9.11426 22.6007C9.11426 27.1929 11.9196 31.0333 15.6736 32.0073C16.5245 32.2294 17.3388 31.4819 17.3388 30.4822C17.3388 29.897 17.0538 29.363 16.5978 29.0982C14.5417 27.8935 13.1329 25.4372 13.1329 22.6049Z" stroke="black" stroke-width="0.4" stroke-miterlimit="10"/>
</g>
<g opacity="0.6">
<path opacity="0.6" d="M22.7052 33.6074C20.2338 33.6074 18.0881 31.9969 17.0295 29.6388C16.7974 29.1176 16.3291 28.793 15.8202 28.793C14.9448 28.793 14.2974 29.72 14.4888 30.6982C15.3357 34.9957 18.6907 38.2081 22.7052 38.2081C26.7157 38.2081 30.0707 35 30.9217 30.6982C31.113 29.7242 30.4656 28.793 29.5902 28.793C29.0813 28.793 28.6131 29.1219 28.381 29.6388C27.3224 31.9926 25.1767 33.6074 22.7052 33.6074Z" fill="#BC87BC" stroke="black" stroke-width="0.4" stroke-miterlimit="10"/>
</g>
<g opacity="0.6">
<path opacity="0.6" d="M22.7052 33.6074C20.2338 33.6074 18.0881 31.9969 17.0295 29.6388C16.7974 29.1176 16.3291 28.793 15.8202 28.793C14.9448 28.793 14.2974 29.72 14.4888 30.6982C15.3357 34.9957 18.6907 38.2081 22.7052 38.2081C26.7157 38.2081 30.0707 35 30.9217 30.6982C31.113 29.7242 30.4656 28.793 29.5902 28.793C29.0813 28.793 28.6131 29.1219 28.381 29.6388C27.3224 31.9926 25.1767 33.6074 22.7052 33.6074Z" stroke="black" stroke-width="0.4" stroke-miterlimit="10"/>
</g>
<g opacity="0.6">
<path opacity="0.6" d="M29.4805 14.847C31.2272 16.8505 31.7484 19.7254 31.0399 22.2458C30.8852 22.8012 31.0114 23.4121 31.3738 23.8264C31.9927 24.5356 33.0269 24.4031 33.491 23.5573C35.5472 19.8322 35.1563 14.847 32.3184 11.5961C29.4805 8.34948 25.128 7.9052 21.8708 10.2547C21.1338 10.7887 21.0198 11.972 21.6346 12.6769C21.997 13.0912 22.5263 13.2365 23.0149 13.0571C25.2217 12.2497 27.7338 12.8435 29.4805 14.847Z" fill="#BC87BC" stroke="black" stroke-width="0.4" stroke-miterlimit="10"/>
</g>
<g opacity="0.6">
<path opacity="0.6" d="M29.4805 14.847C31.2272 16.8505 31.7484 19.7254 31.0399 22.2458C30.8852 22.8012 31.0114 23.4121 31.3738 23.8264C31.9927 24.5356 33.0269 24.4031 33.491 23.5573C35.5472 19.8322 35.1563 14.847 32.3184 11.5961C29.4805 8.34948 25.128 7.9052 21.8708 10.2547C21.1338 10.7887 21.0198 11.972 21.6346 12.6769C21.997 13.0912 22.5263 13.2365 23.0149 13.0571C25.2217 12.2497 27.7338 12.8435 29.4805 14.847Z" stroke="black" stroke-width="0.4" stroke-miterlimit="10"/>
</g>
<g opacity="0.6">
<path opacity="0.6" d="M29.4804 30.5826C27.7337 32.5861 25.2216 33.1799 23.0189 32.3682C22.5343 32.1888 22.001 32.334 21.6386 32.7484C21.0197 33.4575 21.1337 34.6366 21.8747 35.1706C25.132 37.5244 29.4845 37.0758 32.3224 33.8292C35.1603 30.5826 35.5471 25.5973 33.495 21.868C33.0268 21.0222 31.9967 20.8897 31.3778 21.5989C31.0154 22.0132 30.8892 22.6198 31.0439 23.1794C31.7524 25.7041 31.2312 28.5791 29.4804 30.5826Z" fill="#BC87BC" stroke="black" stroke-width="0.4" stroke-miterlimit="10"/>
</g>
<g opacity="0.6">
<path opacity="0.6" d="M29.4804 30.5826C27.7337 32.5861 25.2216 33.1799 23.0189 32.3682C22.5343 32.1888 22.001 32.334 21.6386 32.7484C21.0197 33.4575 21.1337 34.6366 21.8747 35.1706C25.132 37.5244 29.4845 37.0758 32.3224 33.8292C35.1603 30.5826 35.5471 25.5973 33.495 21.868C33.0268 21.0222 31.9967 20.8897 31.3778 21.5989C31.0154 22.0132 30.8892 22.6198 31.0439 23.1794C31.7524 25.7041 31.2312 28.5791 29.4804 30.5826Z" stroke="black" stroke-width="0.4" stroke-miterlimit="10"/>
</g>
<g opacity="0.6">
<path opacity="0.6" d="M15.8732 30.5822C14.1265 28.5787 13.6053 25.7038 14.3138 23.1834C14.4685 22.628 14.3423 22.0171 13.9799 21.6028C13.361 20.8936 12.3268 21.0261 11.8627 21.8719C9.80653 25.597 10.1974 30.5822 13.0353 33.8331C15.8732 37.0797 20.2257 37.524 23.4829 35.1745C24.2199 34.6405 24.3339 33.4572 23.7191 32.7523C23.3567 32.338 22.8274 32.1927 22.3388 32.3721C20.132 33.1795 17.6199 32.5814 15.8732 30.5822Z" fill="#BC87BC" stroke="black" stroke-width="0.4" stroke-miterlimit="10"/>
</g>
<g opacity="0.6">
<path opacity="0.6" d="M15.8732 30.5822C14.1265 28.5787 13.6053 25.7038 14.3138 23.1834C14.4685 22.628 14.3423 22.0171 13.9799 21.6028C13.361 20.8936 12.3268 21.0261 11.8627 21.8719C9.80653 25.597 10.1974 30.5822 13.0353 33.8331C15.8732 37.0797 20.2257 37.524 23.4829 35.1745C24.2199 34.6405 24.3339 33.4572 23.7191 32.7523C23.3567 32.338 22.8274 32.1927 22.3388 32.3721C20.132 33.1795 17.6199 32.5814 15.8732 30.5822Z" stroke="black" stroke-width="0.4" stroke-miterlimit="10"/>
</g>
</svg>
